<svg width="1024" height="571" xmlns="http://www.w3.org/2000/svg">
 <style type="text/css">.st0{fill:#001A4D;}</style>

 <g>
  <title>background</title>
  <rect fill="none" id="canvas_background" height="573" width="1026" y="-1" x="-1"/>
 </g>
 <g>
  <title>Layer 1</title>
  <g stroke="null" id="svg_1">
   <path stroke="null" id="svg_2" d="m618.3408,426.44797c-0.91954,5.21366 -3.1527,10.17299 -6.96221,14.75083c-3.94087,4.70501 -8.93265,6.86677 -14.71259,6.86677c-3.94087,0 -9.32673,-2.54325 -16.28894,-7.7569c-6.96221,-5.08649 -15.23804,-11.57177 -24.43341,-19.45584c-9.19537,-7.88407 -18.91619,-17.03975 -29.68791,-27.21274c-10.509,-10.17299 -21.14935,-20.34598 -31.92107,-30.3918c-10.64036,-10.04583 -21.28072,-19.583 -31.52699,-28.99302c-10.37763,-9.15569 -20.09845,-16.78543 -29.0311,-22.88922l-1.70771,121.44004c0,3.81487 -2.36452,7.37542 -6.96221,10.68164c-4.86041,3.56055 -8.66992,5.21366 -11.82262,5.21366c-4.2036,0 -8.14447,-1.27162 -11.69126,-3.68771c-3.54679,-2.54325 -6.69948,-5.59514 -9.32673,-9.41001c-2.36452,-52.13656 -3.54679,-104.0188 -3.54679,-155.39239c0,-62.05523 1.70771,-125.25491 5.2545,-189.4719c0.26272,-4.19636 2.62725,-7.50258 6.69948,-9.7915c4.07224,-2.28892 7.75038,-3.43338 10.77172,-3.43338c6.3054,0 12.08534,2.28892 17.60257,6.7396c5.38586,4.70501 8.14447,10.04583 8.14447,16.53111l-2.36452,133.3933c11.69126,-12.20759 23.38252,-24.6695 35.20514,-37.76722c11.69126,-13.09772 23.51388,-26.19544 35.46786,-39.166c11.82262,-13.09772 23.90797,-25.81396 35.99331,-38.1487c12.08534,-12.33475 24.43341,-23.90652 36.91285,-34.84248c4.99177,-1.78027 8.01311,-2.79757 8.80128,-2.79757c5.12314,0 8.93265,2.28892 11.69126,6.86677c2.75861,4.57784 4.07224,9.41001 4.07224,14.75083c-22.20025,25.68679 -40.72236,46.92291 -55.56631,63.58117c-14.84396,16.65827 -27.45475,30.64613 -37.56966,42.2179c-10.24627,11.57177 -18.5221,21.23611 -25.22159,28.99302c-6.56812,7.7569 -12.61079,15.51381 -17.47121,23.39787c-0.91954,1.14446 -1.44499,3.43338 -2.1018,6.61244c-0.52545,3.0519 -0.91954,5.34082 -0.91954,6.48528c0.26272,4.0692 3.94087,9.7915 10.77172,16.91259s15.50077,15.38664 25.8784,24.6695c10.37763,9.28285 21.54344,18.94719 34.02287,29.24734c12.21671,10.17299 24.03933,20.21881 35.3365,30.13748c11.42853,9.7915 21.28072,18.94719 29.95064,27.46707c8.66992,8.64704 14.44987,15.76813 17.60257,21.87192l0.65681,1.78027z" class="st0"/>
   <path stroke="null" id="svg_3" d="m347.99689,432.67893c0,2.28892 -0.78817,4.57784 -2.36452,6.48528c-1.44499,2.16176 -3.41542,3.81487 -5.51722,5.21366c-2.1018,1.27162 -4.2036,2.28892 -6.17403,3.0519c-1.83907,0.76297 -3.54679,1.14446 -4.72905,1.14446c-4.2036,0 -8.14447,-1.27162 -11.69126,-3.68771c-3.54679,-2.54325 -6.69948,-5.59514 -9.4581,-9.41001c-2.36452,-52.13656 -3.54679,-104.0188 -3.54679,-155.39239c0,-31.02761 -0.26272,-62.18239 -0.91954,-93.46433c-0.52545,-31.28194 0.13136,-62.94536 2.1018,-94.99027c0.39409,-4.19636 2.62725,-7.50258 6.83085,-9.7915c4.07224,-2.28892 7.61902,-3.43338 10.77172,-3.43338c6.3054,0 12.08534,2.28892 17.47121,6.86677c5.51722,4.57784 8.14447,9.91866 8.14447,16.40394l-0.91954,331.00359z" class="st0"/>
   <path stroke="null" id="svg_4" d="m269.44215,92.77397c0,11.95326 -3.41542,20.09165 -10.24627,23.77936c-6.83085,3.81487 -15.76349,5.84947 -26.66658,5.84947c-10.11491,0 -19.70437,-0.25432 -28.63701,-0.50865c-9.06401,-0.38149 -16.94576,-0.25432 -23.7766,0.50865c-6.83085,0.76297 -12.21671,2.41608 -16.28894,5.08649c-4.2036,2.54325 -6.43676,6.86677 -6.83085,12.97056l0,366.60905c0,3.81487 -2.49589,7.50258 -7.61902,11.19029c-5.12314,3.56055 -8.93265,5.34082 -11.69126,5.34082c-5.51722,0 -9.72082,-1.14446 -13.00488,-3.0519c-3.02134,-2.16176 -5.38586,-6.35812 -6.96221,-12.58907c-1.44499,-6.23096 -2.49589,-15.00516 -2.88997,-26.32261c-0.26272,-11.44461 -0.52545,-26.32261 -0.52545,-44.88831l0,-248.72955c0,-16.27678 -0.26272,-28.86585 -1.18226,-37.76722c-0.78817,-8.90136 -3.1527,-15.25948 -7.3563,-19.20151c-4.07224,-3.94203 -10.509,-6.23096 -19.44164,-6.7396c-8.80128,-0.50865 -21.14935,-0.89014 -37.17557,-0.89014c-3.54679,0 -7.88175,-0.25432 -13.39897,-0.50865c-5.38586,-0.38149 -10.77172,-1.39879 -15.76349,-2.92473c-5.12314,-1.39879 -9.4581,-3.81487 -13.26761,-7.12109c-3.67815,-3.0519 -5.51722,-7.50258 -5.51722,-12.71623c0,-2.28892 0.91954,-4.70501 2.62725,-7.12109c1.70771,-2.54325 3.94087,-4.83217 6.43676,-7.12109c2.62725,-2.41608 5.2545,-4.19636 8.01311,-5.84947c2.62725,-1.39879 5.2545,-2.28892 7.61902,-2.28892l228.0452,0c1.83907,0 4.07224,1.14446 6.43676,3.0519c2.36452,2.16176 4.46632,4.0692 6.43676,6.10379l0,-0.25432c0.91954,0.76297 1.44499,1.39879 1.70771,2.0346c0.39409,0.50865 0.91954,1.0173 1.18226,1.39879l0,2.67041l-0.26272,0z" class="st0"/>
   <path stroke="null" id="svg_5" d="m926.5171,102.56547c2.23316,-6.86677 4.86041,-15.38664 7.3563,-23.6522c4.86041,-16.14962 10.77172,-31.91775 1.83907,-35.85978c-11.29717,-4.95933 -18.5221,1.39879 -31.39562,16.78543c-5.51722,6.48528 -14.18714,15.64097 -21.14935,22.88922c-7.48766,-2.41608 -15.23804,-4.70501 -22.85707,-6.48528c-116.38713,-27.72139 -228.17657,33.95235 -256.94494,147.38116c-14.18714,55.31562 -3.67815,110.7584 24.56478,156.0282c17.07712,27.21274 41.11645,48.70318 70.27891,64.59847c-4.72905,11.95326 -11.03445,31.4091 -11.69126,45.77845c-0.52545,21.49044 10.24627,21.99909 24.95886,7.7569c10.37763,-10.04583 22.59434,-24.92382 31.1329,-35.09681c6.04267,1.78027 11.95398,3.56055 18.12802,4.95933c57.27403,13.60637 113.23443,9.02853 159.8681,-18.31138c100.09818,-58.62184 132.67607,-186.29284 72.11798,-283.19055c-16.68303,-25.94112 -39.14601,-47.43156 -66.20667,-63.58117l0,0zm-150.54136,2.79757l11.5599,-2.41608l28.11156,-1.27162c15.23804,0.25432 31.92107,2.79757 47.42184,7.88407c3.94087,1.39879 4.86041,0.76297 8.01311,2.0346c3.1527,1.14446 4.07224,2.28892 8.27583,3.68771c10.77172,3.68771 19.96709,9.7915 28.50565,14.87799c4.99177,2.92473 8.14447,5.46798 12.21671,8.64704l18.78483,18.5657c-5.77995,-0.76297 -14.58123,1.65311 -19.44164,3.68771c-6.69948,2.67041 -6.04267,8.01123 -10.24627,12.8434c-3.54679,3.94203 -9.4581,6.61244 -13.66169,9.28285c-0.52545,3.0519 -0.26272,8.39271 2.1018,10.30015c2.36452,2.16176 5.2545,0.12716 9.4581,0.12716c1.57635,2.0346 3.41542,6.10379 5.2545,8.39271c6.69948,-0.25432 5.64859,-3.56055 10.11491,-10.42731c-2.36452,-6.35812 -4.99177,-5.46798 1.70771,-10.42731c3.54679,-2.67041 6.04267,-6.7396 9.06401,-6.61244c3.67815,8.13839 -12.08534,4.19636 -3.1527,16.65827c5.2545,1.27162 7.3563,-0.76297 11.29717,1.39879l-7.48766,1.14446l-7.09357,9.66434l-14.97532,3.43338c-2.36452,-3.30622 -3.54679,-7.7569 -7.75038,-9.15569c-3.54679,4.83217 0.13136,4.95933 -3.67815,9.02853l-22.33162,13.60637c2.1018,4.57784 1.83907,1.39879 3.54679,5.59514c4.46632,11.06312 -10.24627,3.94203 -12.74216,9.15569c-2.36452,4.70501 -3.80951,10.30015 1.57635,12.8434c12.74216,5.97663 14.58123,-6.23096 20.88663,-12.71623c2.62725,-2.79757 12.61079,-3.30622 15.36941,-0.76297c11.82262,10.17299 4.99177,5.46798 6.96221,9.41001c0.91954,-0.25432 1.57635,-0.38149 2.75861,-1.0173c2.75861,-1.27162 1.31362,-0.38149 2.75861,-1.65311c-3.41542,-6.7396 -7.09357,-2.79757 -7.75038,-10.55447c12.61079,0.89014 11.42853,17.42124 20.6239,18.82003c1.70771,-4.57784 -0.91954,-4.70501 2.88997,-7.62974c5.12314,1.78027 2.23316,3.30622 5.38586,8.01123l15.23804,2.54325c4.33496,11.8261 -12.21671,10.55447 -19.573,8.51988c-11.5599,-3.30622 -6.83085,-4.0692 -12.74216,2.16176c-4.2036,-0.76297 -7.75038,-3.0519 -11.95398,-5.08649c-6.83085,-2.92473 -2.75861,-3.68771 -6.17403,-9.15569c-6.69948,-0.76297 -14.31851,1.39879 -21.01799,2.28892c-18.12802,2.41608 -11.82262,2.67041 -20.75527,14.11502c-5.38586,6.86677 -11.42853,7.12109 -11.5599,22.6349c0,13.73353 -3.1527,9.41001 4.33496,18.18422c3.80951,4.32352 0.39409,3.94203 4.72905,6.86677c9.58946,6.86677 19.31028,3.94203 28.11156,0.89014c5.51722,-2.0346 4.99177,-0.89014 8.01311,1.27162c3.80951,2.67041 4.46632,1.52595 7.61902,3.81487c0.39409,6.61244 -2.75861,5.46798 0.39409,11.31745c1.44499,2.54325 3.67815,4.32352 5.2545,7.37542c6.04267,11.44461 -5.64859,15.00516 2.23316,30.01031c3.41542,6.23096 3.54679,14.75083 10.90308,26.57693c2.49589,0.50865 5.12314,0.38149 7.61902,-0.12716c-15.63213,17.29408 -34.15424,30.26464 -54.51541,37.00424c-4.46632,1.52595 -8.4072,3.0519 -13.13624,4.57784c-71.59253,21.23611 -145.28686,-2.28892 -189.81873,-54.55265l-16.15758,-22.88922c-1.31362,-2.41608 -2.23316,-3.30622 -3.41542,-5.84947c-5.12314,-10.17299 -10.24627,-20.6003 -13.26761,-31.53626c-6.43676,-24.16085 -9.32673,-47.81304 -5.2545,-73.49984c3.67815,-22.50774 12.08534,-46.15993 24.95886,-65.10712c1.18226,-1.65311 2.23316,-3.30622 3.1527,-4.83217c-0.52545,2.54325 -0.91954,5.08649 -0.26272,7.88407c1.31362,5.84947 0.39409,9.66434 7.48766,11.95326c2.88997,-7.37542 1.83907,-3.30622 0,-11.44461c-0.91954,-4.0692 -0.13136,-8.7742 1.31362,-13.73353l3.54679,1.27162c-0.91954,2.28892 -1.31362,4.95933 -1.70771,7.62974c-0.91954,6.10379 2.49589,12.8434 3.94087,18.69287c-4.07224,3.68771 -3.54679,3.94203 -2.36452,9.02853c2.1018,9.15569 5.77995,6.48528 13.00488,12.8434c0,0.12716 0.26272,0.25432 0.26272,0.38149c2.62725,0 0.52545,1.78027 2.23316,-1.52595l4.2036,1.39879l-1.0509,5.08649c2.75861,1.0173 7.75038,4.0692 9.32673,5.34082c4.33496,3.68771 3.80951,12.20759 8.01311,15.64097c0.13136,0.12716 10.77172,4.95933 11.42853,5.08649c-0.26272,2.41608 -1.44499,7.62974 -2.23316,10.17299c-1.83907,0.38149 -3.41542,1.0173 -5.64859,1.52595c-8.80128,1.78027 -4.99177,3.56055 -11.03445,13.60637c-2.1018,3.30622 -0.13136,4.32352 1.0509,7.88407l4.2036,11.8261c0.78817,2.54325 0.39409,3.94203 -0.78817,7.24825c4.2036,2.67041 4.99177,2.92473 7.75038,6.61244c7.61902,10.17299 4.86041,6.86677 -5.38586,34.33383c1.0509,1.0173 2.1018,1.52595 3.02134,2.67041c-6.96221,10.42731 -7.48766,10.42731 -4.86041,17.5484c1.70771,4.95933 -1.57635,9.02853 -3.94087,13.98786c-1.0509,2.54325 -0.91954,1.39879 -0.26272,4.57784c1.0509,6.10379 1.31362,11.44461 4.46632,16.65827c5.51722,9.02853 1.18226,7.24825 14.97532,11.95326c1.57635,-3.56055 2.49589,-2.54325 0.39409,-5.97663c-0.91954,-1.27162 -3.80951,-4.70501 -3.1527,-5.97663c0.91954,-2.54325 4.99177,-7.12109 5.12314,-8.39271c0.13136,-2.67041 -0.39409,-1.14446 -3.41542,-2.79757c-2.75861,-1.52595 -1.0509,-0.76297 -2.88997,-3.0519c3.80951,-2.79757 4.33496,-0.89014 7.75038,-5.84947c-2.62725,-1.27162 -3.67815,-1.78027 -4.2036,-3.81487c3.02134,-2.0346 2.88997,-0.76297 6.96221,-0.12716c2.75861,0.38149 10.77172,-0.38149 13.26761,-2.0346l10.77172,-7.62974c15.63213,-9.66434 6.3054,-4.95933 10.64036,-16.78543l4.72905,-3.81487c3.41542,1.14446 8.27583,3.56055 11.42853,2.92473c0.13136,0 3.02134,-0.89014 3.02134,-0.89014c8.14447,-2.79757 6.69948,-16.27678 16.81439,-22.50774c4.33496,-2.79757 6.83085,-3.0519 9.32673,-9.7915c-5.12314,-2.28892 -7.3563,-6.10379 -6.83085,-11.57177l-14.58123,-5.97663c-2.36452,-1.0173 -8.93265,-6.48528 -10.509,-8.13839c3.67815,-10.04583 2.23316,-8.13839 1.0509,-15.76813l-10.64036,-3.68771c-0.91954,-5.97663 -1.31362,-12.97056 -7.75038,-15.76813l-1.0509,2.67041c-4.33496,-1.52595 -9.32673,-1.65311 -10.64036,-5.97663c-0.39409,-1.52595 -0.39409,-2.67041 -1.70771,-3.68771c-1.31362,-1.14446 -6.69948,-3.94203 -8.80128,-4.70501c-0.78817,-0.25432 -9.72082,5.08649 -12.34807,5.84947c-3.41542,-1.52595 -9.72082,-5.21366 -11.82262,-7.24825l4.33496,-13.98786c-2.36452,-1.39879 -5.64859,-3.56055 -8.66992,-4.57784c1.31362,-2.16176 2.36452,-2.67041 4.2036,-4.32352c3.02134,-2.79757 1.57635,-1.78027 2.62725,-5.59514c-8.01311,-2.0346 -13.53033,6.61244 -22.46298,0c-4.46632,-3.30622 -0.91954,-9.7915 2.88997,-13.47921c2.49589,-2.41608 4.86041,-5.21366 8.14447,-6.10379c11.03445,-2.67041 19.17892,2.16176 29.16246,5.59514c-2.1018,5.46798 -2.36452,7.7569 4.86041,10.93596c3.02134,-8.51988 -0.91954,-11.31745 16.94576,-14.75083c4.2036,-0.76297 4.33496,-0.50865 6.83085,-3.94203c1.57635,-2.16176 10.90308,-6.86677 13.92442,-7.88407c6.83085,-2.28892 9.06401,-0.12716 15.50077,-4.19636c8.80128,-5.46798 8.01311,-2.67041 11.82262,-0.12716c2.1018,-1.39879 1.70771,-0.38149 3.41542,-2.67041c-6.56812,-2.41608 -5.38586,-7.24825 -1.70771,-5.97663c3.94087,1.27162 3.94087,1.39879 5.12314,5.46798c2.23316,0.25432 6.04267,0.89014 8.27583,1.39879l0.78817,-2.16176l2.1018,0.76297c0.52545,4.83217 -1.70771,1.78027 -4.33496,5.46798c1.18226,2.54325 9.58946,11.44461 12.08534,6.35812c1.44499,-2.92473 -3.41542,-6.23096 -6.17403,-7.37542c3.02134,-6.35812 5.64859,3.43338 9.98355,-7.50258c-1.57635,-2.0346 -2.62725,-4.0692 -5.12314,-5.59514c1.44499,-3.94203 1.44499,-5.97663 3.02134,-10.42731c-4.33496,0.50865 -8.01311,1.78027 -13.53033,0c2.1018,-1.65311 2.62725,-4.95933 3.54679,-7.37542c-4.99177,-1.65311 -6.69948,-4.70501 -11.29717,-6.23096c0,0 -5.64859,1.52595 -6.3054,1.65311l-3.94087,11.06312c-3.54679,0.25432 -7.48766,-1.39879 -10.37763,0.50865c-3.80951,2.41608 -3.41542,5.84947 -9.06401,4.19636l3.1527,-8.90136c-3.41542,-2.16176 -6.56812,-2.79757 -9.19537,-5.34082l-1.70771,-3.81487c0,-1.0173 0.26272,-4.0692 0.26272,-5.21366c8.80128,-1.27162 16.02622,-3.81487 25.8784,-2.67041c-1.0509,2.67041 -0.91954,2.79757 -1.0509,4.95933c3.54679,1.27162 3.67815,2.16176 5.2545,-1.27162c2.23316,0.76297 2.62725,0.50865 4.46632,0.89014l-0.78817,-4.95933c7.48766,2.67041 6.17403,2.0346 11.03445,-1.52595c7.61902,2.67041 11.95398,-0.25432 14.58123,8.13839c-3.80951,0.38149 -11.82262,0.89014 -14.58123,2.67041c4.99177,2.16176 10.11491,6.86677 14.97532,9.02853c0.91954,-1.39879 2.88997,-3.68771 4.07224,-4.83217l7.09357,2.41608c1.44499,-1.27162 2.62725,-2.16176 3.80951,-3.94203c-2.62725,-1.27162 -1.57635,-1.27162 -4.72905,-2.41608c2.88997,-7.7569 2.49589,-6.23096 -3.54679,-11.57177c-1.83907,-1.65311 -4.99177,-4.95933 -6.56812,-6.10379c-5.38586,-3.56055 -14.71259,-2.16176 -19.31028,-2.54325l-2.75861,7.50258l-5.38586,-2.54325c0.78817,-6.48528 3.67815,-4.32352 8.4072,-7.88407c-5.38586,-2.0346 -10.24627,-3.94203 -14.97532,-4.57784l-2.36452,3.81487c2.36452,0.89014 3.67815,1.14446 2.88997,3.43338c-1.18226,2.92473 -3.54679,0.76297 -6.43676,0.25432c-6.69948,-0.89014 1.83907,4.32352 -14.18714,-1.14446c1.31362,-3.43338 0.52545,-3.0519 1.31362,-5.84947c3.41542,1.14446 6.83085,2.92473 9.4581,2.28892c1.57635,-0.38149 5.64859,-2.54325 6.96221,-3.56055c-1.70771,-1.14446 -1.83907,-1.27162 -3.02134,-2.54325c-4.99177,1.14446 -4.07224,3.81487 -10.11491,0.76297c-3.41542,-1.78027 -3.02134,-1.0173 -3.94087,-3.94203c-0.52545,-4.70501 -0.91954,-4.57784 -4.72905,-5.72231l0,0zm-34.41696,10.8088c1.83907,-0.76297 3.94087,-1.52595 5.77995,-2.28892c0.91954,0 2.36452,0.38149 5.51722,1.52595c-0.91954,2.16176 -1.83907,3.94203 -4.2036,3.0519l-7.09357,-2.28892zm14.84396,-5.84947l4.2036,-1.52595l6.69948,2.28892c-1.0509,2.79757 -1.31362,2.54325 -2.88997,3.68771c3.54679,1.27162 5.2545,2.54325 9.58946,4.0692c-0.52545,2.28892 -0.39409,1.27162 -0.26272,2.92473l-10.64036,-3.68771c1.31362,-4.95933 -2.49589,-4.0692 -6.3054,-7.37542l-0.39409,-0.38149zm4.07224,71.08375l-3.54679,-1.14446l1.31362,-3.56055c4.2036,1.39879 2.75861,-0.12716 7.88175,0.38149c-1.18226,3.0519 -2.75861,5.34082 -5.64859,4.32352l0,0zm9.4581,-5.84947c2.49589,1.39879 2.62725,2.41608 5.77995,3.56055l-1.18226,3.43338l-3.67815,-1.14446c-2.62725,-1.14446 -1.97044,-3.17906 -0.91954,-5.84947l0,0zm-7.61902,-1.14446l1.70771,-4.83217l4.99177,1.65311c-1.18226,3.30622 -0.13136,2.54325 -2.49589,3.43338c-1.0509,0.38149 -2.62725,0.12716 -4.2036,-0.25432l0,0zm10.77172,-1.0173c0.52545,-1.39879 2.75861,-0.89014 2.36452,1.0173c-0.78817,2.79757 -2.75861,0 -2.36452,-1.0173l0,0zm-13.13624,-5.21366l-7.88175,5.59514c0,0 -3.67815,2.92473 -3.02134,-1.78027c0.13136,-2.16176 1.57635,-3.43338 3.1527,-4.0692c2.88997,-1.78027 3.41542,-1.27162 7.75038,0.25432l0,0zm8.80128,-2.41608l2.1018,3.68771l-3.02134,-1.0173l0.91954,-2.67041zm-2.75861,-3.30622c-1.31362,5.08649 1.57635,-0.76297 -0.39409,5.21366l-10.64036,-3.68771c-2.62725,-0.89014 -0.26272,0.12716 -1.70771,-1.39879c1.44499,-3.0519 -0.13136,-1.0173 1.83907,-1.78027c0.52545,-0.25432 2.75861,-0.25432 3.54679,-0.25432c1.97044,0.12716 4.46632,1.0173 7.3563,1.90744l0,0zm-17.47121,-17.67557c5.51722,0.50865 2.36452,-1.52595 8.01311,2.0346c-3.94087,5.97663 -1.70771,3.56055 -7.88175,4.19636c0.13136,-1.52595 0,-4.57784 -0.13136,-6.23096l0,0zm-4.33496,-18.43854c-6.43676,-2.28892 -3.02134,-0.89014 -4.72905,-2.41608c1.70771,-1.27162 2.49589,-1.0173 4.99177,-0.76297c2.23316,0.12716 3.54679,0.38149 4.99177,1.78027c-1.31362,1.90744 -2.36452,2.41608 -5.2545,1.39879l0,0zm233.56243,170.14322c-0.26272,1.65311 -0.52545,3.56055 -1.0509,5.34082c-1.70771,0.25432 -3.02134,-0.25432 -4.2036,-3.0519c0.26272,-0.38149 2.23316,-1.14446 5.2545,-2.28892l0,0zm-6.04267,24.79666c-2.1018,6.35812 -4.33496,12.71623 -6.83085,18.82003c-1.57635,-3.94203 -2.62725,-8.64704 4.2036,-16.27678c0.78817,-0.63581 1.57635,-1.52595 2.62725,-2.54325l0,0zm-1.18226,-25.30531c0.78817,-6.35812 -3.67815,-10.30015 -6.43676,-13.98786c-5.2545,-6.86677 -2.36452,-11.06312 -10.24627,-12.20759c0.26272,3.94203 1.31362,5.21366 3.02134,7.7569c5.38586,8.51988 -2.23316,3.81487 7.3563,13.73353c2.62725,2.92473 1.83907,3.68771 6.3054,4.70501l0,0zm-4.86041,-54.93413c0.39409,-0.50865 2.36452,1.52595 0.52545,-3.43338l-7.88175,-8.90136c-3.1527,2.16176 -1.18226,3.0519 -5.12314,2.79757c-3.1527,-0.25432 -1.83907,-1.39879 -5.51722,-3.0519c-8.14447,4.83217 -9.06401,11.57177 -1.31362,11.31745c4.46632,-0.12716 4.86041,-1.65311 10.24627,-0.12716c4.07224,1.14446 5.38586,3.30622 9.06401,1.39879l0,0zm-100.22955,-36.49559c2.36452,-1.27162 4.99177,-2.54325 8.80128,-2.92473c-1.18226,6.48528 -1.57635,9.28285 -9.06401,9.7915l0.26272,-6.86677zm8.66992,-10.8088c8.93265,-0.50865 3.94087,3.0519 8.66992,8.90136c6.04267,7.50258 9.19537,13.22488 -6.17403,11.19029c-0.78817,-5.08649 1.57635,-5.08649 -0.39409,-9.91866c-1.83907,-4.45068 -3.80951,-3.81487 -2.1018,-10.17299l0,0z" class="st0"/>
  </g>
 </g>
</svg>